<svg width="16" height="32" viewBox="0 0 16 32" fill="none" xmlns="http://www.w3.org/2000/svg">
<path fill-rule="evenodd" clip-rule="evenodd" d="M7.05784 5.9999C7.57854 5.4792 8.42276 5.4792 8.94346 5.9999L12.4721 9.52849C12.7324 9.78884 12.7324 10.211 12.4721 10.4713C12.2117 10.7317 11.7896 10.7317 11.5292 10.4713L8.00065 6.94271L4.47206 10.4713C4.21171 10.7317 3.7896 10.7317 3.52925 10.4713C3.2689 10.211 3.2689 9.78884 3.52925 9.52849L7.05784 5.9999Z" fill="#2D3039"/>
<path fill-rule="evenodd" clip-rule="evenodd" d="M7.05784 26.0001C7.57854 26.5208 8.42276 26.5208 8.94346 26.0001L12.4721 22.4715C12.7324 22.2112 12.7324 21.789 12.4721 21.5287C12.2117 21.2683 11.7896 21.2683 11.5292 21.5287L8.00065 25.0573L4.47206 21.5287C4.21171 21.2683 3.7896 21.2683 3.52925 21.5287C3.2689 21.789 3.2689 22.2112 3.52925 22.4715L7.05784 26.0001Z" fill="#2D3039"/>
</svg>
