<svg width="64" height="64" viewBox="0 0 64 64" fill="none" xmlns="http://www.w3.org/2000/svg">
<rect width="64" height="64" rx="32" fill="#D6F3F5"/>
<path fill-rule="evenodd" clip-rule="evenodd" d="M31.9997 21.3334C29.7905 21.3334 27.9997 23.1242 27.9997 25.3334C27.9997 27.5425 29.7905 29.3334 31.9997 29.3334C34.2088 29.3334 35.9997 27.5425 35.9997 25.3334C35.9997 23.1242 34.2088 21.3334 31.9997 21.3334ZM25.333 25.3334C25.333 21.6515 28.3178 18.6667 31.9997 18.6667C35.6816 18.6667 38.6663 21.6515 38.6663 25.3334C38.6663 29.0153 35.6816 32 31.9997 32C28.3178 32 25.333 29.0153 25.333 25.3334ZM21.333 41.3334C21.333 36.9151 24.9147 33.3334 29.333 33.3334H34.6663C39.0846 33.3334 42.6663 36.9151 42.6663 41.3334V42.6667C42.6663 44.1394 41.4724 45.3334 39.9997 45.3334H23.9997C22.5269 45.3334 21.333 44.1394 21.333 42.6667V41.3334ZM29.333 36C26.3875 36 23.9997 38.3878 23.9997 41.3334V42.6667H39.9997V41.3334C39.9997 38.3878 37.6119 36 34.6663 36H29.333Z" fill="#47C8D1"/>
</svg>
