<svg width="44" height="44" viewBox="0 0 44 44" fill="none" xmlns="http://www.w3.org/2000/svg">
<path d="M0 12C0 5.37258 5.37258 0 12 0H32C38.6274 0 44 5.37258 44 12V32C44 38.6274 38.6274 44 32 44H12C5.37258 44 0 38.6274 0 32V12Z" fill="#D6F3F5"/>
<path fill-rule="evenodd" clip-rule="evenodd" d="M22 14C20.3431 14 19 15.3431 19 17C19 18.6569 20.3431 20 22 20C23.6569 20 25 18.6569 25 17C25 15.3431 23.6569 14 22 14ZM17 17C17 14.2386 19.2386 12 22 12C24.7614 12 27 14.2386 27 17C27 19.7614 24.7614 22 22 22C19.2386 22 17 19.7614 17 17ZM14 29C14 25.6863 16.6863 23 20 23H24C27.3137 23 30 25.6863 30 29V30C30 31.1046 29.1046 32 28 32H16C14.8954 32 14 31.1046 14 30V29ZM20 25C17.7909 25 16 26.7909 16 29V30H28V29C28 26.7909 26.2091 25 24 25H20Z" fill="#47C8D1"/>
</svg>
