<svg width="44" height="44" viewBox="0 0 44 44" fill="none" xmlns="http://www.w3.org/2000/svg">
<path d="M0 12C0 5.37258 5.37258 0 12 0H32C38.6274 0 44 5.37258 44 12V32C44 38.6274 38.6274 44 32 44H12C5.37258 44 0 38.6274 0 32V12Z" fill="white"/>
<path fill-rule="evenodd" clip-rule="evenodd" d="M20.9226 16.4106C21.248 16.736 21.248 17.2637 20.9226 17.5891L17.3452 21.1665L28.6667 21.1665C29.1269 21.1665 29.5 21.5396 29.5 21.9998C29.5 22.4601 29.1269 22.8332 28.6667 22.8332L17.3452 22.8332L20.9226 26.4106C21.248 26.736 21.248 27.2637 20.9226 27.5891C20.5972 27.9145 20.0695 27.9145 19.7441 27.5891L14.7441 22.5891C14.4186 22.2637 14.4186 21.736 14.7441 21.4106L19.7441 16.4106C20.0695 16.0851 20.5972 16.0851 20.9226 16.4106Z" fill="black"/>
</svg>
