<svg width="41" height="40" viewBox="0 0 41 40" fill="none" xmlns="http://www.w3.org/2000/svg">
<path d="M20.7503 13.7502C23.5117 13.7502 25.7503 11.5117 25.7503 8.75024C25.7503 5.98882 23.5117 3.75024 20.7503 3.75024C17.9889 3.75024 15.7503 5.98882 15.7503 8.75024C15.7503 11.5117 17.9889 13.7502 20.7503 13.7502Z" fill="#1F747A"/>
<path d="M34.0837 30.4048V15.3656C34.0837 14.4435 33.4205 13.6916 32.6041 13.7538C29.2601 14.0087 25.4106 15.1046 22.6445 17.0415C21.9411 17.534 21.5837 18.3667 21.5837 19.2253V35.8094C21.5837 35.9818 21.7884 36.0751 21.9219 35.9661C24.7104 33.6882 28.9578 32.4103 32.6041 32.1324C33.4205 32.0702 34.0837 31.327 34.0837 30.4048Z" fill="#1F747A"/>
<path fill-rule="evenodd" clip-rule="evenodd" d="M19.5787 35.9661C19.7122 36.0751 19.917 35.9818 19.917 35.8094V19.2253C19.917 18.3667 19.5595 17.534 18.8562 17.0415C16.09 15.1046 12.2405 14.0087 8.89653 13.7538C8.0802 13.6916 7.41699 14.4435 7.41699 15.3656V30.4048C7.41699 31.327 8.0802 32.0702 8.89653 32.1324C12.5429 32.4103 16.7902 33.6882 19.5787 35.9661ZM12.0328 21.7108C11.5824 21.616 11.1405 21.9043 11.0457 22.3547C10.9509 22.805 11.2392 23.247 11.6895 23.3418C13.1532 23.6498 14.6193 24.1086 15.9631 24.7145C16.3827 24.9036 16.8762 24.7168 17.0653 24.2972C17.2545 23.8777 17.0677 23.3842 16.6481 23.1951C15.1817 22.534 13.5992 22.0405 12.0328 21.7108Z" fill="#1F747A"/>
</svg>
