<svg width="24" height="24" viewBox="0 0 24 24" fill="none" xmlns="http://www.w3.org/2000/svg">
<path fill-rule="evenodd" clip-rule="evenodd" d="M2 6C2 3.79086 3.79086 2 6 2H18C20.2091 2 22 3.79086 22 6V18C22 20.2091 20.2091 22 18 22H6C3.79086 22 2 20.2091 2 18V6ZM6 4C4.89543 4 4 4.89543 4 6V18C4 19.1046 4.89543 20 6 20H18C19.1046 20 20 19.1046 20 18V6C20 4.89543 19.1046 4 18 4H6ZM17.2071 8.79289C17.5976 9.18342 17.5976 9.81658 17.2071 10.2071L11.2071 16.2071C10.8166 16.5976 10.1834 16.5976 9.79289 16.2071L6.79289 13.2071C6.40237 12.8166 6.40237 12.1834 6.79289 11.7929C7.18342 11.4024 7.81658 11.4024 8.20711 11.7929L10.5 14.0858L15.7929 8.79289C16.1834 8.40237 16.8166 8.40237 17.2071 8.79289Z" fill="#47C8D1"/>
</svg>
