<svg width="16" height="20" viewBox="0 0 16 20" fill="none" xmlns="http://www.w3.org/2000/svg">
<path d="M4.66667 0.833008C5.1269 0.833008 5.5 1.2061 5.5 1.66634V3.33301C5.5 3.79324 5.1269 4.16634 4.66667 4.16634C4.20643 4.16634 3.83333 3.79324 3.83333 3.33301V1.66634C3.83333 1.2061 4.20643 0.833008 4.66667 0.833008Z" fill="#46B969"/>
<path d="M11.3333 0.833008C11.7936 0.833008 12.1667 1.2061 12.1667 1.66634V3.33301C12.1667 3.79324 11.7936 4.16634 11.3333 4.16634C10.8731 4.16634 10.5 3.79324 10.5 3.33301V1.66634C10.5 1.2061 10.8731 0.833008 11.3333 0.833008Z" fill="#46B969"/>
<path d="M2.34287 2.58693C2.46719 2.55315 2.58333 2.65161 2.58333 2.78044V3.33301C2.58333 4.4836 3.51607 5.41634 4.66667 5.41634C5.81726 5.41634 6.75 4.4836 6.75 3.33301V2.70801C6.75 2.59295 6.84327 2.49967 6.95833 2.49967H9.04167C9.15673 2.49967 9.25 2.59295 9.25 2.70801V3.33301C9.25 4.4836 10.1827 5.41634 11.3333 5.41634C12.4839 5.41634 13.4167 4.4836 13.4167 3.33301V2.78044C13.4167 2.65161 13.5328 2.55315 13.6571 2.58693C14.7191 2.87547 15.5 3.84637 15.5 4.99967V7.08301C15.5 7.31313 15.3135 7.49967 15.0833 7.49967H0.916667C0.686548 7.49967 0.5 7.31313 0.5 7.08301V4.99967C0.5 3.84637 1.28094 2.87547 2.34287 2.58693Z" fill="#46B969"/>
<path d="M15.1695 11.378C14.5236 11.0303 13.7849 10.833 13 10.833C10.4687 10.833 8.41667 12.885 8.41667 15.4163C8.41667 16.7302 8.96948 17.9149 9.85519 18.7506C10.0031 18.8902 9.90981 19.1663 9.70642 19.1663H3C1.61929 19.1663 0.5 18.0471 0.5 16.6663V9.58301C0.5 9.35289 0.686548 9.16634 0.916667 9.16634H15.0833C15.3135 9.16634 15.5 9.35289 15.5 9.58301V11.1897C15.5 11.3551 15.3151 11.4564 15.1695 11.378Z" fill="#46B969"/>
<path fill-rule="evenodd" clip-rule="evenodd" d="M15.5 15.4163C15.5 16.7971 14.3807 17.9163 13 17.9163C11.6193 17.9163 10.5 16.7971 10.5 15.4163C10.5 14.0356 11.6193 12.9163 13 12.9163C14.3807 12.9163 15.5 14.0356 15.5 15.4163ZM13 13.9878C13.1972 13.9878 13.3571 14.1477 13.3571 14.3449V15.6255L13.7883 16.0567C13.9277 16.1961 13.9277 16.4223 13.7883 16.5617C13.6488 16.7012 13.4226 16.7012 13.2832 16.5617L12.8521 16.1306C12.7181 15.9967 12.6429 15.815 12.6429 15.6255V14.3449C12.6429 14.1477 12.8028 13.9878 13 13.9878Z" fill="#46B969"/>
</svg>
