<svg width="24" height="24" viewBox="0 0 24 24" fill="none" xmlns="http://www.w3.org/2000/svg">
<path fill-rule="evenodd" clip-rule="evenodd" d="M18.6667 2H5.33333C3.49238 2 2 3.49238 2 5.33333V18.6667C2 20.5076 3.49238 22 5.33333 22H18.6667C20.5076 22 22 20.5076 22 18.6667V5.33333C22 3.49238 20.5076 2 18.6667 2ZM17.7857 10.0079C18.2196 9.57398 18.2196 8.87046 17.7857 8.43655C17.3518 8.00263 16.6482 8.00263 16.2143 8.43655L10.3333 14.3175L7.78567 11.7699C7.35176 11.336 6.64824 11.336 6.21433 11.7699C5.78041 12.2038 5.78041 12.9073 6.21433 13.3412L9.54766 16.6746C9.98158 17.1085 10.6851 17.1085 11.119 16.6746L17.7857 10.0079Z" fill="#47C8D1"/>
</svg>
