<svg width="20" height="20" viewBox="0 0 20 20" fill="none" xmlns="http://www.w3.org/2000/svg">
<path fill-rule="evenodd" clip-rule="evenodd" d="M10.0013 18.3327C5.39893 18.3327 1.66797 14.6017 1.66797 9.99935C1.66797 5.39698 5.39893 1.66602 10.0013 1.66602C14.6037 1.66602 18.3346 5.39698 18.3346 9.99935C18.3346 14.6017 14.6037 18.3327 10.0013 18.3327ZM10.8346 5.83268C10.8346 5.37244 10.4615 4.99935 10.0013 4.99935C9.54106 4.99935 9.16797 5.37244 9.16797 5.83268V10.416C9.16797 11.1064 9.72761 11.666 10.418 11.666H12.5013C12.9615 11.666 13.3346 11.2929 13.3346 10.8327C13.3346 10.3724 12.9615 9.99935 12.5013 9.99935H10.8346V5.83268Z" fill="#EAB208"/>
</svg>
