<svg width="46" height="62" viewBox="0 0 46 62" fill="none" xmlns="http://www.w3.org/2000/svg">
<rect y="22" width="40" height="40" rx="12" fill="#47C8D1"/>
<path d="M26.7071 38.7071C27.0976 38.3166 27.0976 37.6834 26.7071 37.2929C26.3166 36.9024 25.6834 36.9024 25.2929 37.2929L18 44.5858L14.7071 41.2929C14.3166 40.9024 13.6834 40.9024 13.2929 41.2929C12.9024 41.6834 12.9024 42.3166 13.2929 42.7071L17.2929 46.7071C17.6834 47.0976 18.3166 47.0976 18.7071 46.7071L26.7071 38.7071Z" fill="white"/>
<g clip-path="url(#clip0_166_159)">
<path d="M41.8164 14.4141C41.8164 16.833 40.4523 19.0301 38.486 20.5124C38.608 20.9117 38.6719 21.3394 38.6719 21.7871C38.6719 23.4766 37.7441 25.1074 36.2402 26.084C36.0547 26.2012 35.9277 26.2598 35.7129 26.2598C35.2539 26.2598 34.9609 25.9473 34.9609 25.5859C34.9609 25.2344 35.166 25.0293 35.4492 24.8242C36.543 24.1309 37.207 22.9883 37.207 21.8164C37.207 21.6566 37.1956 21.5009 37.1699 21.3516C35.8529 22.0638 34.3718 22.4707 32.9004 22.4707C32.3697 22.4707 31.8947 22.3774 31.4986 22.2032C31.112 22.2321 30.7318 22.2461 30.3516 22.2461C25.5469 22.2461 21.6992 19.7266 21.6992 15.2441C21.6992 14.581 21.7919 13.9444 21.9681 13.3396C22.6466 13.444 23.083 13.5549 23.3805 13.7765C23.2445 14.2478 23.1738 14.7417 23.1738 15.2539C23.1738 18.8872 26.3715 20.723 30.2544 20.7758C30.2218 20.629 30.2051 20.4742 30.2051 20.3125C30.2051 18.584 31.8945 17.4121 34.1309 17.4121C35.6631 17.4121 36.9942 18.0897 37.8083 19.1765C39.3161 17.9643 40.3516 16.253 40.3516 14.4043C40.3516 10.5469 36.8262 8.00781 32.7344 8.00781C31.2453 8.00781 29.7355 8.31062 28.3705 8.86319C28.1295 8.56086 28 8.1272 27.8828 7.47241C29.4034 6.86345 31.0726 6.5332 32.7246 6.5332C37.6758 6.5332 41.8164 9.76562 41.8164 14.4141ZM31.6895 20.2637C31.6895 20.7324 32.1973 21.0059 32.9004 21.0059C34.1655 21.0059 35.4557 20.6343 36.5957 19.9932C36.0648 19.3119 35.224 18.8965 34.248 18.8965C32.832 18.8965 31.6895 19.4434 31.6895 20.2637Z" fill="#EAF9FA"/>
<path d="M25.9766 16.6699C26.2012 16.6699 26.3574 16.5137 26.3965 16.2988C27.0508 12.7832 27.334 12.3438 30.8008 11.875C31.0352 11.8457 31.2012 11.6797 31.2012 11.4551C31.2012 11.2305 31.0352 11.0645 30.8008 11.0352C27.3438 10.5664 26.9043 10.1367 26.3965 6.62109C26.3672 6.39648 26.2012 6.23047 25.9766 6.23047C25.7617 6.23047 25.5957 6.38672 25.5566 6.61133C24.9219 10.127 24.6191 10.5664 21.1523 11.0352C20.918 11.0645 20.752 11.2305 20.752 11.4551C20.752 11.6797 20.918 11.8457 21.1523 11.875C24.6094 12.3438 25.0488 12.7637 25.5566 16.2891C25.5859 16.5137 25.7422 16.6699 25.9766 16.6699ZM21.5625 9.48242C21.7285 9.48242 21.8652 9.36523 21.8945 9.19922C22.2168 7.53906 22.0898 7.49023 23.8867 7.20703C24.0723 7.17773 24.1797 7.04102 24.1797 6.875C24.1797 6.70898 24.0723 6.57227 23.8867 6.54297C22.0898 6.24023 22.2168 6.18164 21.8945 4.57031C21.8652 4.39453 21.7383 4.26758 21.5625 4.26758C21.3867 4.26758 21.2695 4.38477 21.2305 4.57031C20.8984 6.18164 21.0254 6.24023 19.2383 6.54297C19.0625 6.57227 18.9453 6.70898 18.9453 6.875C18.9453 7.06055 19.0625 7.17773 19.2578 7.20703C21.0254 7.49023 20.8984 7.53906 21.2305 9.16992C21.2695 9.35547 21.377 9.48242 21.5625 9.48242ZM24.7266 5.01953C24.834 5.01953 24.9219 4.93164 24.9414 4.82422C25.1465 3.71094 25.0879 3.68164 26.3184 3.45703C26.4356 3.42773 26.5039 3.33984 26.5039 3.23242C26.5039 3.125 26.4356 3.02734 26.3184 3.00781C25.0781 2.77344 25.127 2.73438 24.9414 1.65039C24.9219 1.5332 24.8438 1.44531 24.7266 1.44531C24.6094 1.44531 24.5313 1.5332 24.502 1.65039C24.2676 2.73438 24.3555 2.77344 23.125 3.00781C23.0176 3.02734 22.9395 3.125 22.9395 3.23242C22.9395 3.34961 23.0176 3.42773 23.1348 3.45703C24.3555 3.65234 24.2676 3.71094 24.502 4.80469C24.5313 4.93164 24.6094 5.01953 24.7266 5.01953Z" fill="#47C8D1" fill-opacity="0.85"/>
<path d="M27.94 17.34V16.068H26.734V15.438H27.94V14.16H28.594V15.438H29.806V16.068H28.594V17.34H27.94ZM30.5311 18V17.28H31.4911V14.598H30.6811V14.046C30.9051 14.002 31.0971 13.95 31.2571 13.89C31.4211 13.83 31.5731 13.758 31.7131 13.674H32.3671V17.28H33.2011V18H30.5311ZM34.0521 19.29V14.64H34.7721L34.8381 14.988H34.8561C34.9961 14.868 35.1501 14.766 35.3181 14.682C35.4901 14.598 35.6661 14.556 35.8461 14.556C36.1221 14.556 36.3581 14.628 36.5541 14.772C36.7501 14.912 36.9001 15.11 37.0041 15.366C37.1121 15.618 37.1661 15.918 37.1661 16.266C37.1661 16.65 37.0981 16.978 36.9621 17.25C36.8261 17.522 36.6481 17.73 36.4281 17.874C36.2121 18.014 35.9821 18.084 35.7381 18.084C35.5941 18.084 35.4501 18.052 35.3061 17.988C35.1661 17.924 35.0321 17.834 34.9041 17.718L34.9341 18.264V19.29H34.0521ZM35.5461 17.358C35.6781 17.358 35.7981 17.32 35.9061 17.244C36.0141 17.164 36.1001 17.044 36.1641 16.884C36.2281 16.724 36.2601 16.522 36.2601 16.278C36.2601 16.066 36.2361 15.886 36.1881 15.738C36.1401 15.586 36.0681 15.472 35.9721 15.396C35.8761 15.32 35.7501 15.282 35.5941 15.282C35.4821 15.282 35.3721 15.31 35.2641 15.366C35.1601 15.422 35.0501 15.508 34.9341 15.624V17.106C35.0421 17.202 35.1481 17.268 35.2521 17.304C35.3561 17.34 35.4541 17.358 35.5461 17.358ZM38.9501 18.084C38.6861 18.084 38.4721 18.032 38.3081 17.928C38.1441 17.82 38.0261 17.672 37.9541 17.484C37.8821 17.296 37.8461 17.078 37.8461 16.83V15.336H37.3721V14.682L37.8941 14.64L37.9961 13.734H38.7221V14.64H39.5561V15.336H38.7221V16.824C38.7221 17.016 38.7621 17.158 38.8421 17.25C38.9221 17.342 39.0361 17.388 39.1841 17.388C39.2401 17.388 39.2981 17.38 39.3581 17.364C39.4181 17.348 39.4701 17.332 39.5141 17.316L39.6641 17.958C39.5721 17.986 39.4661 18.014 39.3461 18.042C39.2301 18.07 39.0981 18.084 38.9501 18.084Z" fill="#47C8D1"/>
</g>
<defs>
<clipPath id="clip0_166_159">
<rect width="28.877" height="30.498" fill="white" transform="translate(16.5)"/>
</clipPath>
</defs>
</svg>
