<svg width="44" height="44" viewBox="0 0 44 44" fill="none" xmlns="http://www.w3.org/2000/svg">
<g filter="url(#filter0_d_2851_81349)">
<path d="M2 21C2 9.95431 10.9543 1 22 1C33.0457 1 42 9.95431 42 21C42 32.0457 33.0457 41 22 41C10.9543 41 2 32.0457 2 21Z" fill="#F8F9FA"/>
<path fill-rule="evenodd" clip-rule="evenodd" d="M16.7929 15.7929C17.1834 15.4024 17.8166 15.4024 18.2071 15.7929L22 19.5858L25.7929 15.7929C26.1834 15.4024 26.8166 15.4024 27.2071 15.7929C27.5976 16.1834 27.5976 16.8166 27.2071 17.2071L23.4142 21L27.2071 24.7929C27.5976 25.1834 27.5976 25.8166 27.2071 26.2071C26.8166 26.5976 26.1834 26.5976 25.7929 26.2071L22 22.4142L18.2071 26.2071C17.8166 26.5976 17.1834 26.5976 16.7929 26.2071C16.4024 25.8166 16.4024 25.1834 16.7929 24.7929L20.5858 21L16.7929 17.2071C16.4024 16.8166 16.4024 16.1834 16.7929 15.7929Z" fill="black"/>
</g>
<defs>
<filter id="filter0_d_2851_81349" x="0" y="0" width="44" height="44" filterUnits="userSpaceOnUse" color-interpolation-filters="sRGB">
<feFlood flood-opacity="0" result="BackgroundImageFix"/>
<feColorMatrix in="SourceAlpha" type="matrix" values="0 0 0 0 0 0 0 0 0 0 0 0 0 0 0 0 0 0 127 0" result="hardAlpha"/>
<feOffset dy="1"/>
<feGaussianBlur stdDeviation="1"/>
<feComposite in2="hardAlpha" operator="out"/>
<feColorMatrix type="matrix" values="0 0 0 0 0.109804 0 0 0 0 0.152941 0 0 0 0 0.192157 0 0 0 0.08 0"/>
<feBlend mode="normal" in2="BackgroundImageFix" result="effect1_dropShadow_2851_81349"/>
<feBlend mode="normal" in="SourceGraphic" in2="effect1_dropShadow_2851_81349" result="shape"/>
</filter>
</defs>
</svg>
