<svg width="20" height="20" viewBox="0 0 20 20" fill="none" xmlns="http://www.w3.org/2000/svg">
<path d="M10.8333 4.99984C10.8333 4.5396 10.4602 4.1665 10 4.1665C9.53976 4.1665 9.16667 4.5396 9.16667 4.99984V9.65466L8.50592 8.99392C8.18049 8.66848 7.65285 8.66848 7.32741 8.99392C7.00197 9.31935 7.00197 9.84699 7.32741 10.1724L9.41074 12.2558C9.73618 12.5812 10.2638 12.5812 10.5893 12.2558L12.6726 10.1724C12.998 9.84699 12.998 9.31935 12.6726 8.99392C12.3472 8.66848 11.8195 8.66848 11.4941 8.99392L10.8333 9.65466V4.99984Z" fill="white"/>
<path d="M4.16667 9.99984C4.16667 9.5396 3.79357 9.1665 3.33333 9.1665C2.8731 9.1665 2.5 9.5396 2.5 9.99984V12.4998C2.5 14.3408 3.99238 15.8332 5.83333 15.8332H14.1667C16.0076 15.8332 17.5 14.3408 17.5 12.4998V9.99984C17.5 9.5396 17.1269 9.1665 16.6667 9.1665C16.2064 9.1665 15.8333 9.5396 15.8333 9.99984V12.4998C15.8333 13.4203 15.0871 14.1665 14.1667 14.1665H5.83333C4.91286 14.1665 4.16667 13.4203 4.16667 12.4998V9.99984Z" fill="white"/>
</svg>
