<svg width="57" height="56" viewBox="0 0 57 56" fill="none" xmlns="http://www.w3.org/2000/svg">
<rect x="2.5" y="2" width="52" height="52" rx="14" fill="#2D3039"/>
<rect x="2.5" y="2" width="52" height="52" rx="14" stroke="white" stroke-width="4"/>
<path d="M39.6922 20.328C39.4319 20.5883 39.0097 20.5883 38.7494 20.328L36.1722 17.7508C35.9118 17.4904 35.9118 17.0683 36.1722 16.808L36.4646 16.5155C37.1519 15.8282 38.2663 15.8282 38.9537 16.5155L39.9846 17.5465C40.672 18.2338 40.672 19.3482 39.9846 20.0355L39.6922 20.328Z" fill="white"/>
<path d="M25.2756 28.1225L24.6963 31.0194C24.603 31.4859 25.0142 31.8972 25.4807 31.8039L28.3776 31.2245C28.7184 31.1564 29.0313 30.9889 29.277 30.7432L36.8638 23.1564C37.1241 22.8961 37.1241 22.474 36.8638 22.2136L34.2866 19.6364C34.0262 19.376 33.6041 19.376 33.3437 19.6364L25.757 27.2232C25.5113 27.4689 25.3438 27.7818 25.2756 28.1225Z" fill="white"/>
<path d="M16.5 21.3333C16.5 18.3878 18.8878 16 21.8333 16H27.1667C27.903 16 28.5 16.597 28.5 17.3333C28.5 18.0697 27.903 18.6667 27.1667 18.6667H21.8333C20.3606 18.6667 19.1667 19.8606 19.1667 21.3333V34.6667C19.1667 36.1394 20.3606 37.3333 21.8333 37.3333H35.1667C36.6394 37.3333 37.8333 36.1394 37.8333 34.6667L37.8333 29.3333C37.8333 28.597 38.4303 28 39.1667 28C39.903 28 40.5 28.597 40.5 29.3333L40.5 34.6667C40.5 37.6122 38.1122 40 35.1667 40H21.8333C18.8878 40 16.5 37.6122 16.5 34.6667V21.3333Z" fill="white"/>
</svg>
