<svg width="24" height="24" viewBox="0 0 24 24" fill="none" xmlns="http://www.w3.org/2000/svg">
<path fill-rule="evenodd" clip-rule="evenodd" d="M8 5C6.89543 5 6 5.89543 6 7V17C6 18.1046 6.89543 19 8 19H10C11.1046 19 12 18.1046 12 17V15.5C12 14.9477 12.4477 14.5 13 14.5C13.5523 14.5 14 14.9477 14 15.5V17C14 19.2091 12.2091 21 10 21H8C5.79086 21 4 19.2091 4 17V7C4 4.79086 5.79086 3 8 3H10C12.2091 3 14 4.79086 14 7V8.5C14 9.05228 13.5523 9.5 13 9.5C12.4477 9.5 12 9.05228 12 8.5V7C12 5.89543 11.1046 5 10 5H8ZM15.7929 8.79289C16.1834 8.40237 16.8166 8.40237 17.2071 8.79289L19.7071 11.2929C20.0976 11.6834 20.0976 12.3166 19.7071 12.7071L17.2071 15.2071C16.8166 15.5976 16.1834 15.5976 15.7929 15.2071C15.4024 14.8166 15.4024 14.1834 15.7929 13.7929L16.5858 13H11C10.4477 13 10 12.5523 10 12C10 11.4477 10.4477 11 11 11H16.5858L15.7929 10.2071C15.4024 9.81658 15.4024 9.18342 15.7929 8.79289Z" fill="#5A6172"/>
</svg>
