<svg width="24" height="24" viewBox="0 0 24 24" fill="none" xmlns="http://www.w3.org/2000/svg">
<path d="M6.62519 10.7276L9.54538 11.4252V21.0395C9.54538 21.5639 9.13179 21.9889 8.60744 21.9889C8.0831 21.9889 7.65804 21.5639 7.65804 21.0395V13.4508H7.24813V21.0395C7.24813 21.5639 6.82307 21.9889 6.29872 21.9889C5.77438 21.9889 5.34913 21.5639 5.34913 21.0395V9.60374L5.97891 10.3341C6.14775 10.5297 6.37384 10.6674 6.62519 10.7276Z" fill="#444855"/>
<path d="M5.35592 5.86878H10.9976C10.5265 6.2526 10.206 6.81489 10.1413 7.45113H9.54545V8.89091L7.58562 8.42314L6.16457 7.45113L7.34451 8.81905L10.7297 9.62937C11.1546 9.73109 11.4166 10.158 11.3149 10.583C11.2133 11.0073 10.7869 11.2701 10.3613 11.1683L6.72792 10.2985C6.56656 10.2599 6.42142 10.1715 6.31303 10.0459L4.43821 7.87239C3.75957 7.08549 4.32065 5.86878 5.35592 5.86878Z" fill="#444855"/>
<path d="M7.39069 5.34916C6.48601 5.30872 5.78541 4.54252 5.82586 3.63782C5.86631 2.73312 6.63249 2.03251 7.53717 2.07296C8.44185 2.1134 9.14244 2.8796 9.10199 3.7843C9.06154 4.689 8.29537 5.38961 7.39069 5.34916Z" fill="#444855"/>
<path d="M14.3704 6.39124C13.48 6.24624 12.8757 5.40691 13.0207 4.51656C13.1658 3.62621 14.0051 3.02199 14.8955 3.167C15.7858 3.312 16.3901 4.15133 16.2451 5.04168C16.1001 5.93203 15.2607 6.53625 14.3704 6.39124Z" fill="#F1F2F4"/>
<path d="M11.7441 10.6862C11.9025 10.0243 11.4943 9.35931 10.8324 9.20083L10.605 9.14637L10.6123 7.68068C10.6175 6.65746 11.4542 5.82499 12.4774 5.82499H12.8094C13.1729 6.45535 13.8534 6.88088 14.6319 6.88088C15.4104 6.88088 16.0909 6.45535 16.4544 5.82499H16.7084C16.8931 5.82498 17.0719 5.88986 17.2137 6.00831L19.5057 7.92319C19.6115 8.01163 19.6923 8.12629 19.74 8.25573C19.7876 8.38516 19.8005 8.52484 19.7772 8.66079L19.2956 11.4781C19.6366 11.7246 19.8591 12.1253 19.8591 12.5772V13.8148C19.8591 14.0309 19.6839 14.206 19.4679 14.206C19.2518 14.206 19.0766 14.0309 19.0766 13.8148V12.5772C19.0766 12.5138 19.0659 12.4529 19.0468 12.3958C18.8712 12.6253 18.5821 12.745 18.288 12.6947C18.158 12.6727 18.0356 12.6182 17.9322 12.5363C17.9289 12.5817 17.9306 17.5941 17.9301 21.5957C17.9301 21.8118 17.755 21.987 17.5389 21.987C17.3228 21.987 17.1477 21.8118 17.1477 21.5957V12.5773C17.1477 12.1327 17.3628 11.7374 17.6944 11.4901L18.1471 8.84212L16.6927 7.62716V21.0304C16.6927 21.5528 16.269 21.9762 15.7467 21.9762C15.2244 21.9762 14.801 21.5528 14.801 21.0304V13.3777H14.3927V21.0545C14.3927 21.5768 13.9692 22.0002 13.4469 22.0002C12.9246 22.0002 12.499 21.5768 12.499 21.0545V7.40123C12.3405 7.40123 12.1748 7.53014 12.174 7.68862V13.4786C12.1718 13.9125 11.8048 14.2628 11.3714 14.2628H11.3674C10.9321 14.2606 10.581 13.906 10.5832 13.4707L10.5924 11.631C11.1312 11.6107 11.6124 11.2361 11.7441 10.6862Z" fill="#F1F2F4"/>
</svg>
