<svg width="20" height="20" viewBox="0 0 20 20" fill="none" xmlns="http://www.w3.org/2000/svg">
<path fill-rule="evenodd" clip-rule="evenodd" d="M2.00302 8.94412C3.16794 7.26308 5.87361 4.16699 10.0003 4.16699C14.127 4.16699 16.8327 7.26308 17.9976 8.94412C18.4457 9.59067 18.4457 10.4103 17.9976 11.0568C16.8327 12.7378 14.127 15.8337 10.0003 15.8337C5.87364 15.8337 3.16798 12.7378 2.00304 11.0568C1.55498 10.4103 1.55497 9.59067 2.00302 8.94412ZM7.91699 10.0003C7.45854 10.0003 7.03468 9.85225 6.69063 9.60131C6.67502 9.73214 6.66699 9.86529 6.66699 10.0003C6.66699 11.8413 8.15938 13.3337 10.0003 13.3337C11.8413 13.3337 13.3337 11.8413 13.3337 10.0003C13.3337 8.15938 11.8413 6.66699 10.0003 6.66699C9.86529 6.66699 9.73214 6.67502 9.60131 6.69063C9.85225 7.03468 10.0003 7.45854 10.0003 7.91699C10.0003 9.06758 9.06759 10.0003 7.91699 10.0003Z" fill="#0C87C0"/>
</svg>
