<svg width="36" height="36" viewBox="0 0 36 36" fill="none" xmlns="http://www.w3.org/2000/svg">
<rect x="2" y="2" width="32" height="32" rx="9" fill="#2D3039"/>
<rect x="2" y="2" width="32" height="32" rx="9" stroke="white" stroke-width="4"/>
<path d="M24.9951 13.205C24.8324 13.3677 24.5686 13.3677 24.4059 13.205L22.7951 11.5942C22.6324 11.4315 22.6324 11.1677 22.7951 11.005L22.9779 10.8222C23.4075 10.3926 24.104 10.3926 24.5335 10.8222L25.1779 11.4666C25.6075 11.8961 25.6075 12.5926 25.1779 13.0222L24.9951 13.205Z" fill="white"/>
<path d="M15.9848 18.0766L15.6227 19.8871C15.5644 20.1787 15.8214 20.4357 16.113 20.3774L17.9235 20.0153C18.1365 19.9727 18.3321 19.8681 18.4856 19.7145L23.2274 14.9728C23.3901 14.81 23.3901 14.5462 23.2274 14.3835L21.6166 12.7727C21.4539 12.61 21.1901 12.61 21.0273 12.7727L16.2856 17.5145C16.132 17.668 16.0274 17.8636 15.9848 18.0766Z" fill="white"/>
<path d="M10.5 13.8333C10.5 11.9924 11.9924 10.5 13.8333 10.5H17.1667C17.6269 10.5 18 10.8731 18 11.3333C18 11.7936 17.6269 12.1667 17.1667 12.1667H13.8333C12.9129 12.1667 12.1667 12.9129 12.1667 13.8333V22.1667C12.1667 23.0871 12.9129 23.8333 13.8333 23.8333H22.1667C23.0871 23.8333 23.8333 23.0871 23.8333 22.1667L23.8333 18.8333C23.8333 18.3731 24.2064 18 24.6667 18C25.1269 18 25.5 18.3731 25.5 18.8333L25.5 22.1667C25.5 24.0076 24.0076 25.5 22.1667 25.5H13.8333C11.9924 25.5 10.5 24.0076 10.5 22.1667V13.8333Z" fill="white"/>
</svg>
