<svg width="24" height="24" viewBox="0 0 24 24" fill="none" xmlns="http://www.w3.org/2000/svg">
<path fill-rule="evenodd" clip-rule="evenodd" d="M6 4C4.89543 4 4 4.89543 4 6V18C4 19.1046 4.89543 20 6 20H18C19.1046 20 20 19.1046 20 18V12C20 11.4477 20.4477 11 21 11C21.5523 11 22 11.4477 22 12V18C22 20.2091 20.2091 22 18 22H6C3.79086 22 2 20.2091 2 18V6C2 3.79086 3.79086 2 6 2H12.1797C12.732 2 13.1797 2.44772 13.1797 3C13.1797 3.55228 12.732 4 12.1797 4H6ZM18.9397 4.15817C18.7288 3.94728 18.3869 3.94728 18.176 4.15817L17.3897 4.94444L19.0556 6.61026L19.8418 5.82398C20.0527 5.61309 20.0527 5.27117 19.8418 5.06028L18.9397 4.15817ZM17.6413 8.02447L15.9755 6.35866L8.80682 13.5274C8.73144 13.6027 8.68005 13.6988 8.65914 13.8033L8.27476 15.7252L10.1967 15.3409C10.3012 15.32 10.3972 15.2686 10.4726 15.1932L17.6413 8.02447ZM16.7618 2.74395C17.7537 1.75202 19.362 1.75201 20.3539 2.74395L21.256 3.64607C22.248 4.63801 22.248 6.24626 21.256 7.23819L11.8868 16.6074C11.5323 16.962 11.0807 17.2037 10.5889 17.302L7.19612 17.9806C6.86826 18.0462 6.52932 17.9435 6.29289 17.7071C6.05647 17.4707 5.95385 17.1317 6.01942 16.8039L6.69798 13.4111C6.79632 12.9194 7.03802 12.4677 7.39261 12.1132L16.7618 2.74395Z" fill="#071213"/>
</svg>
