<svg width="23" height="23" viewBox="0 0 23 23" fill="none" xmlns="http://www.w3.org/2000/svg">
<path fill-rule="evenodd" clip-rule="evenodd" d="M0.5 11.5002C0.5 5.42511 5.42487 0.500244 11.5 0.500244C17.5751 0.500244 22.5 5.42511 22.5 11.5002C22.5 17.5754 17.5751 22.5002 11.5 22.5002C5.42487 22.5002 0.5 17.5754 0.5 11.5002ZM11.5 2.50024C6.52944 2.50024 2.5 6.52968 2.5 11.5002C2.5 16.4708 6.52944 20.5002 11.5 20.5002C16.4706 20.5002 20.5 16.4708 20.5 11.5002C20.5 6.52968 16.4706 2.50024 11.5 2.50024ZM11.4963 7.63851C10.2831 6.80175 8.63052 6.69983 7.31311 7.8464C5.78997 9.17201 5.56726 11.4075 6.77385 12.989C7.46547 13.8956 9.24441 15.5531 10.1632 16.393C10.9198 17.0846 12.074 17.0846 12.8306 16.393C13.7494 15.5531 15.5284 13.8956 16.22 12.989C17.418 11.4188 17.2363 9.16325 15.6704 7.83751C14.3447 6.71517 12.7074 6.80225 11.4963 7.63851ZM10.7311 9.62232C10.1235 8.89875 9.25646 8.80644 8.62612 9.35504C7.8947 9.99161 7.80001 11.0368 8.36393 11.7759C8.91837 12.5027 10.5217 14.0106 11.4969 14.9025C12.4721 14.0106 14.0755 12.5027 14.6299 11.7759C15.2024 11.0255 15.1054 9.97973 14.3781 9.36393C13.7182 8.80524 12.8627 8.90784 12.2627 9.62232C12.0727 9.84859 11.7924 9.97925 11.4969 9.97925C11.2015 9.97925 10.9211 9.84859 10.7311 9.62232Z" fill="#AAAEBB"/>
</svg>
