<svg width="20" height="20" viewBox="0 0 20 20" fill="none" xmlns="http://www.w3.org/2000/svg">
<path d="M13.3138 20C14.6004 20 15.653 18.7331 15.653 17.1847C15.653 15.6364 14.6004 14.3695 13.3138 14.3695C12.0273 14.3695 10.9649 15.6364 10.9649 17.1847C10.9649 18.7331 12.0273 20 13.3138 20ZM13.3138 18.5571C12.6705 18.5571 12.1735 17.9472 12.1735 17.1847C12.1735 16.3987 12.6705 15.8123 13.3138 15.8123C13.9571 15.8123 14.4541 16.3987 14.4541 17.1847C14.4541 17.9472 13.9571 18.5571 13.3138 18.5571ZM11.7641 16.2345H0.779726C0.34113 16.2345 0 16.6569 0 17.1847C0 17.7126 0.34113 18.1231 0.779726 18.1231H11.7641V16.2345ZM18.8889 16.2345H15.0098V18.1231H18.8889C19.2885 18.1231 19.6393 17.7126 19.6393 17.1847C19.6393 16.6569 19.2885 16.2345 18.8889 16.2345ZM6.43273 12.8446C7.71929 12.8446 8.77191 11.566 8.77191 10.0176C8.77191 8.46918 7.71929 7.20231 6.43273 7.20231C5.14619 7.20231 4.09356 8.46918 4.09356 10.0176C4.09356 11.566 5.14619 12.8446 6.43273 12.8446ZM6.43273 11.39C5.79921 11.39 5.29238 10.78 5.29238 10.0176C5.29238 9.24337 5.79921 8.64514 6.43273 8.64514C7.07601 8.64514 7.57308 9.24337 7.57308 10.0176C7.57308 10.78 7.07601 11.39 6.43273 11.39ZM0.74074 9.06742C0.34113 9.06742 0 9.48971 0 10.0176C0 10.5454 0.34113 10.956 0.74074 10.956H4.75632V9.06742H0.74074ZM18.8498 9.06742H7.98244V10.956H18.8498C19.2885 10.956 19.6393 10.5454 19.6393 10.0176C19.6393 9.48971 19.2885 9.06742 18.8498 9.06742ZM13.3138 5.66567C14.6004 5.66567 15.653 4.3988 15.653 2.85042C15.653 1.30202 14.6004 0.0234375 13.3138 0.0234375C12.0273 0.0234375 10.9649 1.30202 10.9649 2.85042C10.9649 4.3988 12.0273 5.66567 13.3138 5.66567ZM13.3138 4.22284C12.6705 4.22284 12.1735 3.61288 12.1735 2.83868C12.1735 2.06449 12.6705 1.46625 13.3138 1.46625C13.9571 1.46625 14.4541 2.06449 14.4541 2.83868C14.4541 3.61288 13.9571 4.22284 13.3138 4.22284ZM11.8128 1.912H0.779726C0.34113 1.912 0 2.32255 0 2.85042C0 3.37827 0.34113 3.80056 0.779726 3.80056H11.8128V1.912ZM18.8889 1.912H14.8732V3.80056H18.8889C19.2885 3.80056 19.6393 3.37827 19.6393 2.85042C19.6393 2.32255 19.2885 1.912 18.8889 1.912Z" fill="#47C8D1"/>
</svg>
