<svg width="24" height="24" viewBox="0 0 24 24" fill="none" xmlns="http://www.w3.org/2000/svg">
<path fill-rule="evenodd" clip-rule="evenodd" d="M3.70711 2.29289C3.31658 1.90237 2.68342 1.90237 2.29289 2.29289C1.90237 2.68342 1.90237 3.31658 2.29289 3.70711L6.07216 7.48637C5.27592 8.22311 4.54038 9.11691 3.88684 10.1588C3.18127 11.2837 3.18127 12.7163 3.88684 13.8412C5.9823 17.1819 8.92078 19 12.0001 19C13.5017 19 14.9698 18.5677 16.323 17.7372L20.2929 21.7071C20.6834 22.0976 21.3166 22.0976 21.7071 21.7071C22.0976 21.3166 22.0976 20.6834 21.7071 20.2929L17.9279 16.5137C18.7242 15.777 19.4598 14.8831 20.1133 13.8412C20.8189 12.7163 20.8189 11.2837 20.1133 10.1588C18.0179 6.81811 15.0794 5 12.0001 5C11.1985 5 10.4064 5.12321 9.6363 5.36441C8.96374 5.57505 8.3079 5.87568 7.67704 6.26283L3.70711 2.29289ZM7.48668 8.90089C6.81086 9.51538 6.16816 10.2857 5.58112 11.2216C5.28318 11.6966 5.28318 12.3034 5.58112 12.7784C7.40823 15.6913 9.77457 17 12.0001 17C12.9442 17 13.9137 16.7645 14.8566 16.2708L14.032 15.4462C13.4365 15.7981 12.7419 16 12.0001 16C9.79095 16 8.00009 14.2091 8.00009 12C8.00009 11.2582 8.20201 10.5636 8.55387 9.96809L7.48668 8.90089ZM9.96807 8.55385L9.14343 7.72922C10.0864 7.23555 11.0559 7 12.0001 7C14.2256 7 16.5919 8.30868 18.4191 11.2216C18.717 11.6966 18.717 12.3034 18.4191 12.7784C17.832 13.7144 17.1893 14.4847 16.5134 15.0992L15.4462 14.032C15.7981 13.4365 16.0001 12.7418 16.0001 12C16.0001 9.79086 14.2092 8 12.0001 8C11.2583 8 10.5636 8.20194 9.96807 8.55385ZM10.5835 11.9977C10.5559 11.9992 10.5281 12 10.5001 12C10.3254 12 10.1577 11.9701 10.0019 11.9153C10.0007 11.9434 10.0001 11.9716 10.0001 12C10.0001 13.1046 10.8955 14 12.0001 14C12.1792 14 12.3529 13.9764 12.5181 13.9323L10.5835 11.9977ZM13.9323 12.5181L11.9978 10.5836C11.9993 10.5559 12.0001 10.528 12.0001 10.5C12.0001 10.3253 11.9702 10.1577 11.9154 10.0018C11.9435 10.0006 11.9717 10 12.0001 10C13.1047 10 14.0001 10.8954 14.0001 12C14.0001 12.1792 13.9765 12.3529 13.9323 12.5181Z" fill="#AAAEBB"/>
</svg>
