<svg width="24" height="24" viewBox="0 0 24 24" fill="none" xmlns="http://www.w3.org/2000/svg">
<path d="M8 9C8 6.79086 9.79086 5 12 5C14.2091 5 16 6.79086 16 9V10.75C16 10.8881 16.1119 11 16.25 11H17.75C17.8881 11 18 10.8881 18 10.75V9C18 5.68629 15.3137 3 12 3C8.68629 3 6 5.68629 6 9V10.75C6 10.8881 6.11193 11 6.25 11H7.75C7.88807 11 8 10.8881 8 10.75V9Z" fill="#2D3039"/>
<path fill-rule="evenodd" clip-rule="evenodd" d="M21 19V14C21 12.8954 20.1046 12 19 12H5C3.89543 12 3 12.8954 3 14V19C3 20.1046 3.89543 21 5 21H19C20.1046 21 21 20.1046 21 19ZM13 16.7298C13 16.6587 13.0311 16.5917 13.0804 16.5405C13.3402 16.2708 13.5 15.9041 13.5 15.5C13.5 14.6716 12.8284 14 12 14C11.1716 14 10.5 14.6716 10.5 15.5C10.5 15.9041 10.6598 16.2708 10.9196 16.5405C10.9689 16.5917 11 16.6587 11 16.7298V18C11 18.5523 11.4477 19 12 19C12.5523 19 13 18.5523 13 18V16.7298Z" fill="#2D3039"/>
</svg>
