<svg width="24" height="24" viewBox="0 0 24 24" fill="none" xmlns="http://www.w3.org/2000/svg">
<path fill-rule="evenodd" clip-rule="evenodd" d="M2 8C2 5.79086 3.79086 4 6 4H18C20.2091 4 22 5.79086 22 8V16C22 18.2091 20.2091 20 18 20H6C3.79086 20 2 18.2091 2 16V8ZM6 6C4.89543 6 4 6.89543 4 8V16C4 17.1046 4.89543 18 6 18H18C19.1046 18 20 17.1046 20 16V8C20 6.89543 19.1046 6 18 6H6ZM5.10557 7.55279C5.35256 7.05881 5.95324 6.85858 6.44721 7.10557L10.6584 9.21115C11.5029 9.63344 12.4971 9.63344 13.3416 9.21115L17.5528 7.10557C18.0468 6.85858 18.6474 7.05881 18.8944 7.55279C19.1414 8.04676 18.9412 8.64744 18.4472 8.89443L14.2361 11C12.8284 11.7038 11.1716 11.7038 9.76393 11L5.55279 8.89443C5.05881 8.64744 4.85858 8.04676 5.10557 7.55279Z" fill="#AAAEBB"/>
</svg>
