<svg width="40" height="40" viewBox="0 0 40 40" fill="none" xmlns="http://www.w3.org/2000/svg">
<rect width="40" height="40" rx="12" fill="white" fill-opacity="0.3"/>
<path d="M29.859 27.1668C29.7925 27.3677 29.6034 27.5 29.3918 27.5L25.9799 27.5C25.7038 27.5 25.481 27.2749 25.4704 26.9989C25.3305 23.3272 23.6832 21.3887 23.3475 19.5C22.6366 15.5 24.0583 11.5 26.9014 11.5C29.0339 11.5 31.1663 15.5 31.1663 19.5C31.1663 22.0234 30.5296 25.1443 29.859 27.1668Z" fill="#40C4AA"/>
<path d="M15.5289 21.6656C15.5184 21.9415 15.2956 22.1667 15.0194 22.1667L11.6076 22.1667C11.396 22.1667 11.2069 22.0344 11.1403 21.8335C10.4697 19.811 9.83309 16.69 9.83301 14.1667C9.83301 10.1667 11.9654 6.16671 14.0979 6.16671C16.941 6.16671 18.3627 10.1667 17.6518 14.1667C17.3162 16.0554 15.6688 17.9939 15.5289 21.6656Z" fill="#40C4AA"/>
<path d="M25.4802 30.8334L25.4802 30.1667C25.4802 29.7985 25.7787 29.5 26.1469 29.5L29.0783 29.5C29.4465 29.5 29.745 29.7985 29.745 30.1667L29.745 30.8334C29.745 31.9379 28.7903 32.8334 27.6126 32.8334C26.4349 32.8334 25.4802 31.9379 25.4802 30.8334Z" fill="#40C4AA"/>
<path d="M15.5197 25.5L15.5197 24.8334C15.5197 24.4652 15.2212 24.1667 14.853 24.1667L11.9215 24.1667C11.5534 24.1667 11.2549 24.4652 11.2549 24.8334L11.2549 25.5C11.2549 26.6046 12.2096 27.5 13.3873 27.5C14.565 27.5 15.5197 26.6046 15.5197 25.5Z" fill="#40C4AA"/>
</svg>
