<svg width="24" height="25" viewBox="0 0 24 25" fill="none" xmlns="http://www.w3.org/2000/svg">
<path fill-rule="evenodd" clip-rule="evenodd" d="M3.00059 8.09352C3.20646 14.1197 5.53308 19.5699 11.1059 21.3601C11.6866 21.5466 12.3134 21.5466 12.8941 21.3601C18.4669 19.5699 20.7935 14.1197 20.9994 8.09352C21.0169 7.58167 20.6467 7.15046 20.1578 7.05081C17.5104 6.51123 15.4106 5.35537 13.1163 3.8374C12.4363 3.38753 11.5637 3.38753 10.8837 3.8374C8.58942 5.35537 6.48962 6.51123 3.8422 7.05081C3.35327 7.15046 2.98311 7.58167 3.00059 8.09352ZM12 11.5C12.5523 11.5 13 11.9477 13 12.5V16.5C13 17.0523 12.5523 17.5 12 17.5C11.4477 17.5 11 17.0523 11 16.5V12.5C11 11.9477 11.4477 11.5 12 11.5ZM12 10.5C12.5523 10.5 13 10.0523 13 9.5C13 8.94772 12.5523 8.5 12 8.5C11.4477 8.5 11 8.94772 11 9.5C11 10.0523 11.4477 10.5 12 10.5Z" fill="#1F747A"/>
</svg>
