<svg width="14" height="22" viewBox="0 0 14 22" fill="none" xmlns="http://www.w3.org/2000/svg">
<path d="M6.482 9.574H7.532V12.906C7.532 13.452 7.42 13.732 6.972 13.886C6.538 14.04 5.852 14.054 4.774 14.054C4.718 13.76 4.564 13.368 4.424 13.088C5.25 13.116 5.992 13.116 6.216 13.102C6.412 13.102 6.482 13.046 6.482 12.878V9.574ZM3.654 10.106L4.732 10.442C3.99 11.646 2.842 12.878 1.82 13.648C1.61 13.466 1.148 13.13 0.882 12.976C1.932 12.276 2.996 11.198 3.654 10.106ZM9.548 10.638L10.388 10.106C11.438 10.946 12.656 12.164 13.202 13.032L12.306 13.634C11.788 12.78 10.584 11.52 9.548 10.638ZM9.884 12.094L10.948 12.416C9.772 15.412 7 16.7 2.45 17.232C2.366 16.91 2.156 16.49 1.932 16.224C6.244 15.832 8.806 14.74 9.884 12.094ZM0.77 8.664H13.244V9.672H0.77V8.664ZM7.098 5.892H11.886V6.844H7.098V5.892ZM6.468 4.254H7.546V9.196H6.468V4.254ZM2.842 5.36H3.906V9.042H2.842V5.36Z" fill="#AAAEBB"/>
</svg>
