<svg width="24" height="25" viewBox="0 0 24 25" fill="none" xmlns="http://www.w3.org/2000/svg">
<path fill-rule="evenodd" clip-rule="evenodd" d="M10.9715 2.5H13.0285C13.565 2.5 14 2.93497 14 3.47154C14 3.92037 14.3096 4.30515 14.7346 4.44946C15.0868 4.56904 15.4285 4.71107 15.7582 4.87385C16.1608 5.07265 16.6521 5.01949 16.9696 4.70197C17.3492 4.32242 17.9646 4.32242 18.3441 4.70197L19.798 6.1559C20.1776 6.53546 20.1776 7.15084 19.798 7.5304C19.4805 7.84792 19.4274 8.33918 19.6262 8.74182C19.7889 9.0715 19.931 9.41325 20.0505 9.76537C20.1949 10.1904 20.5796 10.5 21.0285 10.5C21.565 10.5 22 10.935 22 11.4715V13.5285C22 14.065 21.565 14.5 21.0285 14.5C20.5796 14.5 20.1949 14.8096 20.0505 15.2346C19.931 15.5868 19.7889 15.9285 19.6262 16.2582C19.4274 16.6608 19.4805 17.1521 19.798 17.4696C20.1776 17.8492 20.1776 18.4645 19.798 18.8441L18.3441 20.298C17.9645 20.6776 17.3492 20.6776 16.9696 20.298C16.6521 19.9805 16.1608 19.9274 15.7582 20.1262C15.4285 20.2889 15.0868 20.431 14.7346 20.5505C14.3096 20.6949 14 21.0796 14 21.5285C14 22.065 13.565 22.5 13.0285 22.5H10.9715C10.435 22.5 10 22.065 10 21.5285C10 21.0796 9.69037 20.6949 9.26537 20.5505C8.91325 20.431 8.5715 20.2889 8.24182 20.1262C7.83918 19.9274 7.34792 19.9805 7.0304 20.298C6.65085 20.6776 6.03546 20.6776 5.65591 20.298L4.20197 18.8441C3.82242 18.4646 3.82242 17.8492 4.20197 17.4696C4.51949 17.1521 4.57265 16.6608 4.37385 16.2582C4.21107 15.9285 4.06904 15.5868 3.94946 15.2346C3.80515 14.8096 3.42037 14.5 2.97154 14.5C2.43497 14.5 2 14.065 2 13.5285V11.4715C2 10.935 2.43497 10.5 2.97154 10.5C3.42037 10.5 3.80515 10.1904 3.94946 9.76537C4.06904 9.41325 4.21107 9.07149 4.37384 8.74181C4.57264 8.33917 4.51949 7.84791 4.20197 7.53039C3.82241 7.15084 3.82241 6.53546 4.20197 6.1559L5.6559 4.70197C6.03545 4.32241 6.65084 4.32241 7.03039 4.70197C7.34791 5.01949 7.83917 5.07264 8.24181 4.87384C8.57149 4.71107 8.91325 4.56904 9.26537 4.44946C9.69037 4.30515 10 3.92037 10 3.47154C10 2.93497 10.435 2.5 10.9715 2.5ZM17 12.5C17 15.2614 14.7614 17.5 12 17.5C9.23858 17.5 7 15.2614 7 12.5C7 9.73858 9.23858 7.5 12 7.5C14.7614 7.5 17 9.73858 17 12.5Z" fill="#217C82"/>
</svg>
