<svg width="17" height="16" viewBox="0 0 17 16" fill="none" xmlns="http://www.w3.org/2000/svg">
<path fill-rule="evenodd" clip-rule="evenodd" d="M8.50033 0.666016C8.86852 0.666016 9.16699 0.964492 9.16699 1.33268H10.1143C11.2259 1.33268 12.2209 2.02221 12.6112 3.06302L12.9623 3.99935H13.167C13.5352 3.99935 13.8337 4.29783 13.8337 4.66602C13.8337 5.0342 13.5352 5.33268 13.167 5.33268H13.124L12.6233 12.8434C12.5299 14.2442 11.3665 15.3327 9.96255 15.3327H7.0381C5.63419 15.3327 4.47072 14.2442 4.37734 12.8434L3.87662 5.33268H3.83366C3.46547 5.33268 3.16699 5.0342 3.16699 4.66602C3.16699 4.29783 3.46547 3.99935 3.83366 3.99935H4.03833L4.38945 3.06302C4.77975 2.02221 5.77474 1.33268 6.88633 1.33268H7.83366C7.83366 0.964492 8.13214 0.666016 8.50033 0.666016ZM5.21292 5.33268L5.70772 12.7547C5.75441 13.4551 6.33615 13.9993 7.0381 13.9993H9.96255C10.6645 13.9993 11.2462 13.4551 11.2929 12.7547L11.7877 5.33268H5.21292ZM11.5383 3.99935H5.46233L5.63789 3.53118C5.83304 3.01078 6.33053 2.66602 6.88633 2.66602H10.1143C10.6701 2.66602 11.1676 3.01078 11.3628 3.53118L11.5383 3.99935ZM7.50033 6.66602C7.86852 6.66602 8.16699 6.96449 8.16699 7.33268V11.9993C8.16699 12.3675 7.86852 12.666 7.50033 12.666C7.13214 12.666 6.83366 12.3675 6.83366 11.9993V7.33268C6.83366 6.96449 7.13214 6.66602 7.50033 6.66602ZM9.50033 6.66602C9.86852 6.66602 10.167 6.96449 10.167 7.33268V11.9993C10.167 12.3675 9.86852 12.666 9.50033 12.666C9.13214 12.666 8.83366 12.3675 8.83366 11.9993V7.33268C8.83366 6.96449 9.13214 6.66602 9.50033 6.66602Z" fill="#C10B29"/>
</svg>
