<svg width="24" height="25" viewBox="0 0 24 25" fill="none" xmlns="http://www.w3.org/2000/svg">
<path fill-rule="evenodd" clip-rule="evenodd" d="M12 2.5C17.5228 2.5 22 6.97715 22 12.5C22 16.2014 19.989 19.4331 17 21.1622C15.5291 22.013 13.8214 22.5 12 22.5C10.1786 22.5 8.47087 22.013 7 21.1622C4.01099 19.4331 2 16.2014 2 12.5C2 6.97715 6.47715 2.5 12 2.5ZM12.0002 13C13.6571 13 15.0002 11.6569 15.0002 10C15.0002 8.34315 13.6571 7 12.0002 7C10.3434 7 9.00023 8.34315 9.00023 10C9.00023 11.6569 10.3434 13 12.0002 13ZM13.0002 15C15.0377 15 16.7194 16.5233 16.9684 18.4932C16.9888 18.6546 16.9177 18.813 16.7874 18.9105C16.5356 19.0988 16.2724 19.2727 15.9988 19.431C14.8241 20.1105 13.4607 20.5 12.0002 20.5C10.5398 20.5 9.17634 20.1105 8.00169 19.431C7.7281 19.2727 7.46482 19.0988 7.21307 18.9105C7.08279 18.813 7.01163 18.6546 7.03203 18.4932C7.2811 16.5233 8.96277 15 11.0002 15H13.0002Z" fill="#217C82"/>
</svg>
