<svg width="24" height="25" viewBox="0 0 24 25" fill="none" xmlns="http://www.w3.org/2000/svg">
<path d="M13.8574 11.3344C14.5799 10.233 15.0001 8.91559 15.0001 7.5C15.0001 6.08441 14.5799 4.76696 13.8574 3.66558C14.2195 3.55785 14.603 3.5 15 3.5C17.2092 3.5 19 5.29086 19 7.5C19 9.70914 17.2092 11.5 15 11.5C14.603 11.5 14.2195 11.4422 13.8574 11.3344Z" fill="#217C82"/>
<path d="M16.8741 21.5C16.9563 21.1804 17.0001 20.8453 17.0001 20.5V19.5C17.0001 17.6081 16.3434 15.8696 15.2455 14.5H16C18.7615 14.5 21 16.7386 21 19.5V20.5C21 21.0523 20.5523 21.5 20 21.5H16.8741Z" fill="#217C82"/>
<path d="M10 14.5H8C5.23858 14.5 3 16.7386 3 19.5V20.5C3 21.0523 3.44772 21.5 4 21.5H14C14.5523 21.5 15 21.0523 15 20.5V19.5C15 16.7386 12.7614 14.5 10 14.5Z" fill="#217C82"/>
<path d="M9 11.5C11.2091 11.5 13 9.70914 13 7.5C13 5.29086 11.2091 3.5 9 3.5C6.79086 3.5 5 5.29086 5 7.5C5 9.70914 6.79086 11.5 9 11.5Z" fill="#217C82"/>
</svg>
