<svg width="16" height="16" viewBox="0 0 16 16" fill="none" xmlns="http://www.w3.org/2000/svg">
<g clip-path="url(#clip0_2464_14478)">
<path fill-rule="evenodd" clip-rule="evenodd" d="M7.99967 0.583252C3.90356 0.583252 0.583008 3.90381 0.583008 7.99992C0.583008 12.096 3.90356 15.4166 7.99967 15.4166C12.0958 15.4166 15.4163 12.096 15.4163 7.99992C15.4163 3.90381 12.0958 0.583252 7.99967 0.583252ZM2.08301 7.99992C2.08301 4.73223 4.73199 2.08325 7.99967 2.08325C11.2674 2.08325 13.9163 4.73223 13.9163 7.99992C13.9163 11.2676 11.2674 13.9166 7.99967 13.9166C4.73199 13.9166 2.08301 11.2676 2.08301 7.99992ZM8.74967 5.33325C8.74967 4.91904 8.41389 4.58325 7.99967 4.58325C7.58546 4.58325 7.24967 4.91904 7.24967 5.33325V8.66658C7.24967 9.0808 7.58546 9.41658 7.99967 9.41658C8.41389 9.41658 8.74967 9.0808 8.74967 8.66658V5.33325ZM8.08301 11.5C8.49722 11.5 8.83301 11.1642 8.83301 10.75C8.83301 10.3358 8.49722 10 8.08301 10C7.66879 10 7.33301 10.3358 7.33301 10.75C7.33301 11.1642 7.66879 11.5 8.08301 11.5Z" fill="#F43F5D"/>
</g>
<defs>
<clipPath id="clip0_2464_14478">
<rect width="16" height="16" fill="white"/>
</clipPath>
</defs>
</svg>
