<svg width="14" height="14" viewBox="0 0 14 14" fill="none" xmlns="http://www.w3.org/2000/svg">
<path fill-rule="evenodd" clip-rule="evenodd" d="M7.00016 13.6673C3.31826 13.6673 0.333496 10.6825 0.333496 7.00065C0.333496 3.31875 3.31826 0.333984 7.00016 0.333984C10.6821 0.333984 13.6668 3.31875 13.6668 7.00065C13.6668 10.6825 10.6821 13.6673 7.00016 13.6673ZM7.66683 4.00065C7.66683 4.36884 7.36835 4.66732 7.00016 4.66732C6.63197 4.66732 6.3335 4.36884 6.3335 4.00065C6.3335 3.63246 6.63197 3.33398 7.00016 3.33398C7.36835 3.33398 7.66683 3.63246 7.66683 4.00065ZM6.00016 6.00065C6.00016 5.63246 6.29864 5.33398 6.66683 5.33398H7.00016C7.36835 5.33398 7.66683 5.63246 7.66683 6.00065V9.33398C8.03502 9.33398 8.3335 9.63246 8.3335 10.0007C8.3335 10.3688 8.03502 10.6673 7.66683 10.6673H6.3335C5.96531 10.6673 5.66683 10.3688 5.66683 10.0007C5.66683 9.63246 5.96531 9.33398 6.3335 9.33398V6.57813C6.13423 6.46286 6.00016 6.24741 6.00016 6.00065Z" fill="#F43F5D"/>
</svg>
